<svg xmlns="http://www.w3.org/2000/svg" width="30.871" height="33.076" viewBox="0 0 30.871 33.076">
  <g id="education" transform="translate(-5.998 -1.999)">
    <path id="Path_567" data-name="Path 567" d="M26.205,13.41a.551.551,0,0,1-.39-.161l-1.654-1.654a.551.551,0,0,1,0-.779l1.654-1.654a.551.551,0,1,1,.78.78l-1.264,1.264,1.264,1.264a.551.551,0,0,1-.39.941Z" transform="translate(-8.078 -3.142)" fill="#fff"/>
    <path id="Path_568" data-name="Path 568" d="M35.551,13.41a.551.551,0,0,1-.39-.941l1.264-1.264L35.162,9.941a.551.551,0,1,1,.78-.78l1.654,1.654a.551.551,0,0,1,0,.779l-1.654,1.654A.551.551,0,0,1,35.551,13.41Z" transform="translate(-13.014 -3.142)" fill="#fff"/>
    <path id="Path_569" data-name="Path 569" d="M30.551,13.512a.538.538,0,0,1-.135-.017.551.551,0,0,1-.4-.669l1.1-4.41a.551.551,0,1,1,1.069.268l-1.1,4.41a.551.551,0,0,1-.534.417Z" transform="translate(-10.77 -2.693)" fill="#fff"/>
    <path id="Path_570" data-name="Path 570" d="M27.063,15.362a.547.547,0,0,1-.39-.162l-1.319-1.32a6.064,6.064,0,1,1,3.418,0l-1.32,1.32a.547.547,0,0,1-.389.162Zm0-12.26a4.961,4.961,0,0,0-1.281,9.753.551.551,0,0,1,.249.143l1.033,1.032L28.1,13a.551.551,0,0,1,.249-.143A4.961,4.961,0,0,0,27.063,3.1Z" transform="translate(-6.732 0)" fill="#fff"/>
    <path id="Path_571" data-name="Path 571" d="M36.777,43.681l-1.8-2.7a1.643,1.643,0,0,0-.312-2.955v-3.96a.551.551,0,0,0-.346-.512L20.537,28.039a.561.561,0,0,0-.41,0L6.345,33.552a.551.551,0,0,0,0,1.024l5.166,2.066v8.447a1.654,1.654,0,0,0,1.654,1.654H27.5a1.654,1.654,0,0,0,1.654-1.654V36.642l4.41-1.764v3.146a1.643,1.643,0,0,0-.312,2.956l-1.8,2.7a.551.551,0,0,0,.459.856h4.41a.551.551,0,0,0,.459-.857Zm-8.727,1.408a.551.551,0,0,1-.551.551H13.165a.551.551,0,0,1-.551-.551V37.083l7.513,3.005a.557.557,0,0,0,.41,0l7.513-3.005Zm.337-9.328-8.054,3.222-8.054-3.222-4.243-1.7,12.3-4.919,12.3,4.919Zm5.727,3.264a.551.551,0,1,1-.551.551A.551.551,0,0,1,34.113,39.025Zm-1.175,4.41,1.175-1.764,1.175,1.764Z" transform="translate(0 -11.668)" fill="#fff"/>
    <path id="Path_572" data-name="Path 572" d="M20,56.551a.551.551,0,0,0,.551.551H32.679a.551.551,0,0,0,0-1.1H20.551A.551.551,0,0,0,20,56.551Z" transform="translate(-6.283 -24.233)" fill="#fff"/>
    <path id="Path_573" data-name="Path 573" d="M54,19h1.1v1.1H54Z" transform="translate(-21.541 -7.629)" fill="#fff"/>
    <path id="Path_574" data-name="Path 574" d="M56,17h1.1v1.1H56Z" transform="translate(-22.438 -6.732)" fill="#fff"/>
    <path id="Path_575" data-name="Path 575" d="M52,17h1.1v1.1H52Z" transform="translate(-20.643 -6.732)" fill="#fff"/>
    <path id="Path_576" data-name="Path 576" d="M54,15h1.1v1.1H54Z" transform="translate(-21.541 -5.834)" fill="#fff"/>
    <path id="Path_577" data-name="Path 577" d="M45,27h1.1v1.1H45Z" transform="translate(-17.502 -11.219)" fill="#fff"/>
    <path id="Path_578" data-name="Path 578" d="M47,25h1.1v1.1H47Z" transform="translate(-18.399 -10.322)" fill="#fff"/>
    <path id="Path_579" data-name="Path 579" d="M43,25h1.1v1.1H43Z" transform="translate(-16.604 -10.322)" fill="#fff"/>
    <path id="Path_580" data-name="Path 580" d="M45,23h1.1v1.1H45Z" transform="translate(-17.502 -9.424)" fill="#fff"/>
    <path id="Path_581" data-name="Path 581" d="M8,19H9.1v1.1H8Z" transform="translate(-0.898 -7.629)" fill="#fff"/>
    <path id="Path_582" data-name="Path 582" d="M6,17H7.1v1.1H6Z" transform="translate(-0.001 -6.732)" fill="#fff"/>
    <path id="Path_583" data-name="Path 583" d="M10,17h1.1v1.1H10Z" transform="translate(-1.796 -6.732)" fill="#fff"/>
    <path id="Path_584" data-name="Path 584" d="M8,15H9.1v1.1H8Z" transform="translate(-0.898 -5.834)" fill="#fff"/>
    <path id="Path_585" data-name="Path 585" d="M17,27h1.1v1.1H17Z" transform="translate(-4.937 -11.219)" fill="#fff"/>
    <path id="Path_586" data-name="Path 586" d="M15,25h1.1v1.1H15Z" transform="translate(-4.04 -10.322)" fill="#fff"/>
    <path id="Path_587" data-name="Path 587" d="M19,25h1.1v1.1H19Z" transform="translate(-5.835 -10.322)" fill="#fff"/>
    <path id="Path_588" data-name="Path 588" d="M17,23h1.1v1.1H17Z" transform="translate(-4.937 -9.424)" fill="#fff"/>
  </g>
</svg>
