<svg xmlns="http://www.w3.org/2000/svg" width="27.501" height="33.001" viewBox="0 0 27.501 33.001">
  <g id="Programmer" transform="translate(-7 -2)">
    <path id="Path_649" data-name="Path 649" d="M27.351,20.7h-3.3V19.6H31.2a1.65,1.65,0,0,0,1.65-1.65V3.65A1.65,1.65,0,0,0,31.2,2H10.3A1.65,1.65,0,0,0,8.65,3.65v14.3A1.65,1.65,0,0,0,10.3,19.6h7.15v1.1h-3.3A7.159,7.159,0,0,0,7,27.851v6.6a.55.55,0,0,0,.55.55h26.4a.55.55,0,0,0,.55-.55v-6.6a7.159,7.159,0,0,0-7.15-7.15Zm-2.767,5.084,1-3.984h.545L23.6,33.9h-.175l-1-7.02.778-1.167.525.382a.55.55,0,0,0,.857-.311Zm-3.025.416H19.947l-.759-1.134,1.562-1.136,1.562,1.136Zm-1.43,1.1h1.246l.943,6.6H19.185Zm3.588-2.575-2.031-1.476,1.994-1.45h.767ZM10.3,3.1H31.2a.55.55,0,0,1,.55.55V5.3h-22V3.65a.55.55,0,0,1,.55-.55ZM9.75,17.951V6.4h22v11.55a.55.55,0,0,1-.55.55H10.3a.55.55,0,0,1-.55-.55Zm13.2,1.65v1.37l-2.2,1.6-2.2-1.6V19.6Zm-5.129,2.2,1.994,1.45-2.03,1.476L17.055,21.8Zm-.9,3.984a.55.55,0,0,0,.857.311l.525-.382.778,1.167-1,7.02H17.9L15.376,21.8h.545ZM8.1,27.851a6.057,6.057,0,0,1,6.05-6.05h.1l2.521,12.1H13.6V27.3a.55.55,0,0,0-1.1,0v6.6H8.1ZM33.4,33.9H29v-6.05a.55.55,0,1,0-1.1,0V33.9H24.727l2.521-12.1h.1a6.057,6.057,0,0,1,6.05,6.05Z" fill="#fff"/>
    <path id="Path_650" data-name="Path 650" d="M16.55,14a.55.55,0,0,0-.55.55v7.7a.55.55,0,0,0,1.1,0v-7.7A.55.55,0,0,0,16.55,14Z" transform="translate(-4.05 -5.4)" fill="#fff"/>
    <path id="Path_651" data-name="Path 651" d="M20.243,15.108l1.65,1.1a.55.55,0,0,0,.611-.915l-.965-.642.964-.642a.55.55,0,1,0-.611-.915l-1.65,1.1a.55.55,0,0,0,0,.915Z" transform="translate(-5.848 -4.95)" fill="#fff"/>
    <path id="Path_652" data-name="Path 652" d="M31.092,16.055a.55.55,0,0,0,.763.152l1.65-1.1a.55.55,0,0,0,0-.915l-1.65-1.1a.55.55,0,1,0-.611.915l.965.642-.964.642a.55.55,0,0,0-.154.763Z" transform="translate(-10.799 -4.95)" fill="#fff"/>
    <path id="Path_653" data-name="Path 653" d="M26.375,16.371a.55.55,0,0,0,.7-.348l1.1-3.3a.551.551,0,0,0-1.045-.348l-1.1,3.3a.55.55,0,0,0,.35.7Z" transform="translate(-8.548 -4.499)" fill="#fff"/>
    <path id="Path_654" data-name="Path 654" d="M20,22h3.3v1.1H20Z" transform="translate(-5.85 -9)" fill="#fff"/>
    <path id="Path_655" data-name="Path 655" d="M28,22h1.1v1.1H28Z" transform="translate(-9.45 -9)" fill="#fff"/>
    <path id="Path_656" data-name="Path 656" d="M23,25h6.6v1.1H23Z" transform="translate(-7.2 -10.35)" fill="#fff"/>
    <path id="Path_657" data-name="Path 657" d="M41,25h3.85v1.1H41Z" transform="translate(-15.299 -10.35)" fill="#fff"/>
    <path id="Path_658" data-name="Path 658" d="M23,28h1.1v1.1H23Z" transform="translate(-7.2 -11.699)" fill="#fff"/>
    <path id="Path_659" data-name="Path 659" d="M27,28h6.6v1.1H27Z" transform="translate(-9 -11.699)" fill="#fff"/>
    <path id="Path_660" data-name="Path 660" d="M41,28h2.2v1.1H41Z" transform="translate(-15.299 -11.699)" fill="#fff"/>
    <path id="Path_661" data-name="Path 661" d="M37,25h1.1v1.1H37Z" transform="translate(-13.499 -10.35)" fill="#fff"/>
    <path id="Path_662" data-name="Path 662" d="M14,5h1.1V6.1H14Z" transform="translate(-3.15 -1.35)" fill="#fff"/>
    <path id="Path_663" data-name="Path 663" d="M18,5h1.1V6.1H18Z" transform="translate(-4.95 -1.35)" fill="#fff"/>
    <path id="Path_664" data-name="Path 664" d="M22,5h1.1V6.1H22Z" transform="translate(-6.75 -1.35)" fill="#fff"/>
  </g>
</svg>
