<svg xmlns="http://www.w3.org/2000/svg" width="140" height="56" viewBox="0 0 140 56">
  <g id="Group_1452" data-name="Group 1452" transform="translate(-1044 -1776)" opacity="0.4">
    <circle id="Ellipse_3260" data-name="Ellipse 3260" cx="2" cy="2" r="2" transform="translate(1044 1832) rotate(-90)" fill="#febfb3"/>
    <circle id="Ellipse_3261" data-name="Ellipse 3261" cx="2" cy="2" r="2" transform="translate(1044 1819) rotate(-90)" fill="#febfb3"/>
    <circle id="Ellipse_3262" data-name="Ellipse 3262" cx="2" cy="2" r="2" transform="translate(1044 1806) rotate(-90)" fill="#febfb3"/>
    <circle id="Ellipse_3263" data-name="Ellipse 3263" cx="2" cy="2" r="2" transform="translate(1044 1793) rotate(-90)" fill="#febfb3"/>
    <circle id="Ellipse_3264" data-name="Ellipse 3264" cx="2" cy="2" r="2" transform="translate(1044 1780) rotate(-90)" fill="#febfb3"/>
    <circle id="Ellipse_3260-2" data-name="Ellipse 3260" cx="2" cy="2" r="2" transform="translate(1061 1832) rotate(-90)" fill="#febfb3"/>
    <circle id="Ellipse_3261-2" data-name="Ellipse 3261" cx="2" cy="2" r="2" transform="translate(1061 1819) rotate(-90)" fill="#febfb3"/>
    <circle id="Ellipse_3262-2" data-name="Ellipse 3262" cx="2" cy="2" r="2" transform="translate(1061 1806) rotate(-90)" fill="#febfb3"/>
    <circle id="Ellipse_3263-2" data-name="Ellipse 3263" cx="2" cy="2" r="2" transform="translate(1061 1793) rotate(-90)" fill="#febfb3"/>
    <circle id="Ellipse_3264-2" data-name="Ellipse 3264" cx="2" cy="2" r="2" transform="translate(1061 1780) rotate(-90)" fill="#febfb3"/>
    <circle id="Ellipse_3260-3" data-name="Ellipse 3260" cx="2" cy="2" r="2" transform="translate(1078 1832) rotate(-90)" fill="#febfb3"/>
    <circle id="Ellipse_3261-3" data-name="Ellipse 3261" cx="2" cy="2" r="2" transform="translate(1078 1819) rotate(-90)" fill="#febfb3"/>
    <circle id="Ellipse_3262-3" data-name="Ellipse 3262" cx="2" cy="2" r="2" transform="translate(1078 1806) rotate(-90)" fill="#febfb3"/>
    <circle id="Ellipse_3263-3" data-name="Ellipse 3263" cx="2" cy="2" r="2" transform="translate(1078 1793) rotate(-90)" fill="#febfb3"/>
    <circle id="Ellipse_3264-3" data-name="Ellipse 3264" cx="2" cy="2" r="2" transform="translate(1078 1780) rotate(-90)" fill="#febfb3"/>
    <circle id="Ellipse_3260-4" data-name="Ellipse 3260" cx="2" cy="2" r="2" transform="translate(1095 1832) rotate(-90)" fill="#febfb3"/>
    <circle id="Ellipse_3261-4" data-name="Ellipse 3261" cx="2" cy="2" r="2" transform="translate(1095 1819) rotate(-90)" fill="#febfb3"/>
    <circle id="Ellipse_3262-4" data-name="Ellipse 3262" cx="2" cy="2" r="2" transform="translate(1095 1806) rotate(-90)" fill="#febfb3"/>
    <circle id="Ellipse_3263-4" data-name="Ellipse 3263" cx="2" cy="2" r="2" transform="translate(1095 1793) rotate(-90)" fill="#febfb3"/>
    <circle id="Ellipse_3264-4" data-name="Ellipse 3264" cx="2" cy="2" r="2" transform="translate(1095 1780) rotate(-90)" fill="#febfb3"/>
    <circle id="Ellipse_3260-5" data-name="Ellipse 3260" cx="2" cy="2" r="2" transform="translate(1112 1832) rotate(-90)" fill="#febfb3"/>
    <circle id="Ellipse_3261-5" data-name="Ellipse 3261" cx="2" cy="2" r="2" transform="translate(1112 1819) rotate(-90)" fill="#febfb3"/>
    <circle id="Ellipse_3262-5" data-name="Ellipse 3262" cx="2" cy="2" r="2" transform="translate(1112 1806) rotate(-90)" fill="#febfb3"/>
    <circle id="Ellipse_3263-5" data-name="Ellipse 3263" cx="2" cy="2" r="2" transform="translate(1112 1793) rotate(-90)" fill="#febfb3"/>
    <circle id="Ellipse_3264-5" data-name="Ellipse 3264" cx="2" cy="2" r="2" transform="translate(1112 1780) rotate(-90)" fill="#febfb3"/>
    <circle id="Ellipse_3260-6" data-name="Ellipse 3260" cx="2" cy="2" r="2" transform="translate(1129 1832) rotate(-90)" fill="#febfb3"/>
    <circle id="Ellipse_3261-6" data-name="Ellipse 3261" cx="2" cy="2" r="2" transform="translate(1129 1819) rotate(-90)" fill="#febfb3"/>
    <circle id="Ellipse_3262-6" data-name="Ellipse 3262" cx="2" cy="2" r="2" transform="translate(1129 1806) rotate(-90)" fill="#febfb3"/>
    <circle id="Ellipse_3263-6" data-name="Ellipse 3263" cx="2" cy="2" r="2" transform="translate(1129 1793) rotate(-90)" fill="#febfb3"/>
    <circle id="Ellipse_3264-6" data-name="Ellipse 3264" cx="2" cy="2" r="2" transform="translate(1129 1780) rotate(-90)" fill="#febfb3"/>
    <circle id="Ellipse_3260-7" data-name="Ellipse 3260" cx="2" cy="2" r="2" transform="translate(1146 1832) rotate(-90)" fill="#febfb3"/>
    <circle id="Ellipse_3261-7" data-name="Ellipse 3261" cx="2" cy="2" r="2" transform="translate(1146 1819) rotate(-90)" fill="#febfb3"/>
    <circle id="Ellipse_3262-7" data-name="Ellipse 3262" cx="2" cy="2" r="2" transform="translate(1146 1806) rotate(-90)" fill="#febfb3"/>
    <circle id="Ellipse_3263-7" data-name="Ellipse 3263" cx="2" cy="2" r="2" transform="translate(1146 1793) rotate(-90)" fill="#febfb3"/>
    <circle id="Ellipse_3264-7" data-name="Ellipse 3264" cx="2" cy="2" r="2" transform="translate(1146 1780) rotate(-90)" fill="#febfb3"/>
    <circle id="Ellipse_3260-8" data-name="Ellipse 3260" cx="2" cy="2" r="2" transform="translate(1163 1832) rotate(-90)" fill="#febfb3"/>
    <circle id="Ellipse_3261-8" data-name="Ellipse 3261" cx="2" cy="2" r="2" transform="translate(1163 1819) rotate(-90)" fill="#febfb3"/>
    <circle id="Ellipse_3262-8" data-name="Ellipse 3262" cx="2" cy="2" r="2" transform="translate(1163 1806) rotate(-90)" fill="#febfb3"/>
    <circle id="Ellipse_3263-8" data-name="Ellipse 3263" cx="2" cy="2" r="2" transform="translate(1163 1793) rotate(-90)" fill="#febfb3"/>
    <circle id="Ellipse_3264-8" data-name="Ellipse 3264" cx="2" cy="2" r="2" transform="translate(1163 1780) rotate(-90)" fill="#febfb3"/>
    <circle id="Ellipse_3260-9" data-name="Ellipse 3260" cx="2" cy="2" r="2" transform="translate(1180 1832) rotate(-90)" fill="#febfb3"/>
    <circle id="Ellipse_3261-9" data-name="Ellipse 3261" cx="2" cy="2" r="2" transform="translate(1180 1819) rotate(-90)" fill="#febfb3"/>
    <circle id="Ellipse_3262-9" data-name="Ellipse 3262" cx="2" cy="2" r="2" transform="translate(1180 1806) rotate(-90)" fill="#febfb3"/>
    <circle id="Ellipse_3263-9" data-name="Ellipse 3263" cx="2" cy="2" r="2" transform="translate(1180 1793) rotate(-90)" fill="#febfb3"/>
    <circle id="Ellipse_3264-9" data-name="Ellipse 3264" cx="2" cy="2" r="2" transform="translate(1180 1780) rotate(-90)" fill="#febfb3"/>
  </g>
</svg>
