<svg xmlns="http://www.w3.org/2000/svg" width="33.076" height="33.076" viewBox="0 0 33.076 33.076">
  <g id="coding" transform="translate(-2 -2)">
    <path id="Path_589" data-name="Path 589" d="M16.884,31.768H3.654a.551.551,0,0,1-.551-.551V6.41H29.563v4.961a.551.551,0,0,0,1.1,0V3.654A1.654,1.654,0,0,0,29.012,2H3.654A1.654,1.654,0,0,0,2,3.654V31.217a1.654,1.654,0,0,0,1.654,1.654h13.23a.551.551,0,0,0,0-1.1ZM3.654,3.1H29.012a.551.551,0,0,1,.551.551V5.308H3.1V3.654A.551.551,0,0,1,3.654,3.1Z" fill="#fff"/>
    <path id="Path_590" data-name="Path 590" d="M6,5H7.1V6.1H6Z" transform="translate(-1.795 -1.346)" fill="#fff"/>
    <path id="Path_591" data-name="Path 591" d="M10,5h1.1V6.1H10Z" transform="translate(-3.59 -1.346)" fill="#fff"/>
    <path id="Path_592" data-name="Path 592" d="M14,5h1.1V6.1H14Z" transform="translate(-5.385 -1.346)" fill="#fff"/>
    <path id="Path_593" data-name="Path 593" d="M8,14.551V34.4a.551.551,0,1,0,1.1,0V14.551a.551.551,0,1,0-1.1,0Z" transform="translate(-2.692 -5.385)" fill="#fff"/>
    <path id="Path_594" data-name="Path 594" d="M14.664,15.245a.551.551,0,0,0-.765-.153l-1.654,1.1a.551.551,0,0,0,0,.917l1.654,1.1a.551.551,0,1,0,.612-.917l-.967-.644.966-.644a.551.551,0,0,0,.154-.765Z" transform="translate(-4.487 -5.833)" fill="#fff"/>
    <path id="Path_595" data-name="Path 595" d="M23.857,18.215l1.654-1.1a.551.551,0,0,0,0-.917l-1.654-1.1a.551.551,0,0,0-.612.917l.967.644-.966.644a.551.551,0,1,0,.612.917Z" transform="translate(-9.423 -5.833)" fill="#fff"/>
    <path id="Path_596" data-name="Path 596" d="M18.55,18.409a.551.551,0,0,0,.523-.377l1.1-3.307a.552.552,0,1,0-1.047-.348l-1.1,3.308a.551.551,0,0,0,.524.725Z" transform="translate(-7.179 -5.384)" fill="#fff"/>
    <path id="Path_597" data-name="Path 597" d="M12,25h2.205v1.1H12Z" transform="translate(-4.487 -10.321)" fill="#fff"/>
    <path id="Path_598" data-name="Path 598" d="M18,25h3.308v1.1H18Z" transform="translate(-7.18 -10.321)" fill="#fff"/>
    <path id="Path_599" data-name="Path 599" d="M16,29h7.718v1.1H16Z" transform="translate(-6.282 -12.116)" fill="#fff"/>
    <path id="Path_600" data-name="Path 600" d="M16,33h1.1v1.1H16Z" transform="translate(-6.282 -13.911)" fill="#fff"/>
    <path id="Path_601" data-name="Path 601" d="M20,33h5.513v1.1H20Z" transform="translate(-8.077 -13.911)" fill="#fff"/>
    <path id="Path_602" data-name="Path 602" d="M12,37h2.205v1.1H12Z" transform="translate(-4.487 -15.706)" fill="#fff"/>
    <path id="Path_603" data-name="Path 603" d="M18,37h3.308v1.1H18Z" transform="translate(-7.18 -15.706)" fill="#fff"/>
    <path id="Path_604" data-name="Path 604" d="M16,41h7.718v1.1H16Z" transform="translate(-6.282 -17.501)" fill="#fff"/>
    <path id="Path_605" data-name="Path 605" d="M16,45h5.513v1.1H16Z" transform="translate(-6.282 -19.296)" fill="#fff"/>
    <path id="Path_606" data-name="Path 606" d="M12,49h2.205v1.1H12Z" transform="translate(-4.487 -21.091)" fill="#fff"/>
    <path id="Path_607" data-name="Path 607" d="M18,49h3.308v1.1H18Z" transform="translate(-7.18 -21.091)" fill="#fff"/>
    <path id="Path_608" data-name="Path 608" d="M47.987,22H34.756a.551.551,0,0,0-.551.551v1.654H32.551a.551.551,0,0,0-.551.551V43.5a.551.551,0,0,0,.551.551h13.23a.551.551,0,0,0,.551-.551V41.846h1.654a.551.551,0,0,0,.551-.551V22.551A.551.551,0,0,0,47.987,22ZM45.23,42.948H33.1V25.308h8.82v2.756a.551.551,0,0,0,.551.551H45.23Zm-.779-15.435H43.025V26.087Zm2.985,13.23h-1.1V28.064a.556.556,0,0,0-.162-.39l-3.308-3.308a.556.556,0,0,0-.39-.162H35.308V23.1H47.435Z" transform="translate(-13.462 -8.975)" fill="#fff"/>
    <path id="Path_609" data-name="Path 609" d="M28,45h1.1v1.1H28Z" transform="translate(-11.667 -19.296)" fill="#fff"/>
    <path id="Path_610" data-name="Path 610" d="M36,32h2.205v1.1H36Z" transform="translate(-15.257 -13.462)" fill="#fff"/>
    <path id="Path_611" data-name="Path 611" d="M42,32h3.308v1.1H42Z" transform="translate(-17.949 -13.462)" fill="#fff"/>
    <path id="Path_612" data-name="Path 612" d="M40,36h7.718v1.1H40Z" transform="translate(-17.052 -15.257)" fill="#fff"/>
    <path id="Path_613" data-name="Path 613" d="M40,40h1.1v1.1H40Z" transform="translate(-17.052 -17.052)" fill="#fff"/>
    <path id="Path_614" data-name="Path 614" d="M44,40h5.513v1.1H44Z" transform="translate(-18.847 -17.052)" fill="#fff"/>
    <path id="Path_615" data-name="Path 615" d="M36,44h2.205v1.1H36Z" transform="translate(-15.257 -18.847)" fill="#fff"/>
    <path id="Path_616" data-name="Path 616" d="M42,44h3.308v1.1H42Z" transform="translate(-17.949 -18.847)" fill="#fff"/>
    <path id="Path_617" data-name="Path 617" d="M40,48h7.718v1.1H40Z" transform="translate(-17.052 -20.642)" fill="#fff"/>
    <path id="Path_618" data-name="Path 618" d="M40,52h5.513v1.1H40Z" transform="translate(-17.052 -22.437)" fill="#fff"/>
    <path id="Path_619" data-name="Path 619" d="M36,56h2.205v1.1H36Z" transform="translate(-15.257 -24.232)" fill="#fff"/>
    <path id="Path_620" data-name="Path 620" d="M42,56h3.308v1.1H42Z" transform="translate(-17.949 -24.232)" fill="#fff"/>
    <path id="Path_621" data-name="Path 621" d="M52,52h1.1v1.1H52Z" transform="translate(-22.437 -22.437)" fill="#fff"/>
  </g>
</svg>
